<?xml version="1.0" encoding="UTF-8"?> <svg xmlns="http://www.w3.org/2000/svg" width="405" height="405" viewBox="0 0 405 405" fill="none"> <path d="M405 255C405 337.843 337.843 405 255 405H2.22928e-05L0 150C-7.2423e-06 67.1573 67.1572 1.64217e-05 150 9.1794e-06L255 0C337.843 -7.24232e-06 405 67.1573 405 150V255Z" fill="#FFB600"></path> <path d="M254.507 285.828H151.264C142.707 285.828 134.501 282.429 128.45 276.378C122.4 270.327 119 262.121 119 253.564V163.227C119 161.515 119.68 159.874 120.89 158.664C122.101 157.454 123.742 156.774 125.453 156.774H254.507C263.064 156.774 271.27 160.173 277.32 166.224C283.371 172.274 286.77 180.481 286.77 189.038V253.564C286.77 262.121 283.371 270.327 277.32 276.378C271.27 282.429 263.064 285.828 254.507 285.828ZM131.906 169.68V253.564C131.906 258.698 133.945 263.622 137.576 267.253C141.206 270.883 146.13 272.922 151.264 272.922H254.507C259.641 272.922 264.565 270.883 268.195 267.253C271.825 263.622 273.865 258.698 273.865 253.564V189.038C273.865 183.904 271.825 178.98 268.195 175.349C264.565 171.719 259.641 169.68 254.507 169.68H131.906Z" fill="white"></path> <path d="M267.412 169.68C265.701 169.68 264.06 169 262.85 167.79C261.64 166.579 260.96 164.938 260.96 163.227V145.482C261.083 143.222 260.695 140.962 259.823 138.873C258.952 136.784 257.62 134.918 255.927 133.415C254.405 132.276 252.644 131.497 250.777 131.14C248.91 130.782 246.986 130.854 245.151 131.351L136.939 155.935C135.484 156.263 134.187 157.085 133.269 158.262C132.351 159.438 131.87 160.896 131.906 162.388C131.906 164.099 131.226 165.741 130.016 166.951C128.806 168.161 127.165 168.841 125.453 168.841C123.742 168.841 122.101 168.161 120.891 166.951C119.681 165.741 119.001 164.099 119.001 162.388C118.963 157.977 120.433 153.685 123.167 150.223C125.901 146.762 129.736 144.338 134.035 143.353L242.311 118.768C246.035 117.826 249.925 117.75 253.683 118.544C257.441 119.338 260.968 120.982 263.992 123.349C267.191 126.064 269.738 129.462 271.447 133.292C273.156 137.123 273.982 141.289 273.865 145.482V163.227C273.865 164.938 273.185 166.579 271.975 167.79C270.765 169 269.124 169.68 267.412 169.68Z" fill="white"></path> <path d="M280.317 247.112H235.149C228.303 247.112 221.738 244.392 216.898 239.552C212.057 234.711 209.338 228.146 209.338 221.301C209.338 214.456 212.057 207.89 216.898 203.05C221.738 198.21 228.303 195.49 235.149 195.49H280.317C282.029 195.49 283.67 196.17 284.88 197.38C286.09 198.59 286.77 200.232 286.77 201.943V240.659C286.77 242.37 286.09 244.012 284.88 245.222C283.67 246.432 282.029 247.112 280.317 247.112ZM235.149 208.396C231.726 208.396 228.443 209.755 226.023 212.175C223.603 214.596 222.243 217.878 222.243 221.301C222.243 224.724 223.603 228.006 226.023 230.426C228.443 232.847 231.726 234.206 235.149 234.206H273.865V208.396H235.149Z" fill="white"></path> </svg> 